<?xml version="1.0" encoding="utf-8"?>
<!-- Generator: Adobe Illustrator 13.0.0, SVG Export Plug-In . SVG Version: 6.00 Build 14948)  -->
<!DOCTYPE svg PUBLIC "-//W3C//DTD SVG 1.0//EN" "http://www.w3.org/TR/2001/REC-SVG-20010904/DTD/svg10.dtd">
<svg version="1.0"
	 id="svg4486" sodipodi:version="0.32" sodipodi:docname="tryout.svg" inkscape:version="0.46" inkscape:output_extension="org.inkscape.output.svg.inkscape" xmlns:cc="http://creativecommons.org/ns#" xmlns:rdf="http://www.w3.org/1999/02/22-rdf-syntax-ns#" xmlns:svg="http://www.w3.org/2000/svg" xmlns:sodipodi="http://sodipodi.sourceforge.net/DTD/sodipodi-0.dtd" xmlns:inkscape="http://www.inkscape.org/namespaces/inkscape" xmlns:dc="http://purl.org/dc/elements/1.1/"
	 xmlns="http://www.w3.org/2000/svg" xmlns:xlink="http://www.w3.org/1999/xlink" x="0px" y="0px" width="135px" height="135px"
	 viewBox="0 0 135 135" enable-background="new 0 0 135 135" xml:space="preserve">
<defs>
	
	
		<inkscape:perspective  id="perspective4493" inkscape:persp3d-origin="372.04724 : 350.78739 : 1" inkscape:vp_z="744.09448 : 526.18109 : 1" inkscape:vp_y="0 : 1000 : 0" inkscape:vp_x="0 : 526.18109 : 1" sodipodi:type="inkscape:persp3d">
		</inkscape:perspective>
	
		<inkscape:perspective  id="perspective4757" inkscape:persp3d-origin="372.04724 : 350.78739 : 1" inkscape:vp_z="744.09448 : 526.18109 : 1" inkscape:vp_y="0 : 1000 : 0" inkscape:vp_x="0 : 526.18109 : 1" sodipodi:type="inkscape:persp3d">
		</inkscape:perspective>
	
		<inkscape:perspective  id="perspective5520" inkscape:persp3d-origin="372.04724 : 350.78739 : 1" inkscape:vp_z="744.09448 : 526.18109 : 1" inkscape:vp_y="0 : 1000 : 0" inkscape:vp_x="0 : 526.18109 : 1" sodipodi:type="inkscape:persp3d">
		</inkscape:perspective>
</defs>
<sodipodi:namedview  id="base" inkscape:current-layer="svg4486" inkscape:window-y="-4" inkscape:window-x="-4" inkscape:pageopacity="0.0" inkscape:pageshadow="2" inkscape:window-width="1024" inkscape:window-height="712" inkscape:cy="56.433381" inkscape:cx="41.328223" inkscape:zoom="3.696" showgrid="false" pagecolor="#ffffff" bordercolor="#666666" borderopacity="1.0" objecttolerance="10.0" gridtolerance="10.0" guidetolerance="10.0">
	</sodipodi:namedview>
<g id="g5545">
	<path id="rect3326" fill="#D4C462" d="M15.464,5h104.072C125.333,5,130,9.667,130,15.464v104.072
		c0,5.797-4.667,10.464-10.464,10.464H15.464C9.667,130,5,125.333,5,119.536V15.464C5,9.667,9.667,5,15.464,5z"/>
	<g id="flowRoot4498" transform="matrix(0.2827418,0,0,0.264,25.034186,-6.75758)">
	</g>
	<path id="flowRoot5526" d="M67.883,82.463c2.392,2.239,4.597,3.877,6.617,4.912l-1.515,4.875c-2.8-1.373-5.589-3.539-8.371-6.5
		c-2.888,2.19-6.077,3.285-9.566,3.285c-3.525,0-6.723-1.154-9.593-3.467c-2.87-2.311-5.08-5.561-6.63-9.75S36.5,66.91,36.5,61.661
		c0-5.225,0.779-9.98,2.338-14.266c1.559-4.285,3.778-7.548,6.657-9.787c2.879-2.239,6.099-3.359,9.66-3.359
		c3.596,0,6.838,1.162,9.726,3.485c2.888,2.324,5.088,5.574,6.604,9.751c1.514,4.177,2.271,8.891,2.271,14.139
		c0,4.358-0.487,8.275-1.461,11.756C71.32,76.859,69.85,79.887,67.883,82.463L67.883,82.463z M56.536,73.506
		c2.977,1.133,5.43,2.818,7.361,5.057c3.03-3.756,4.544-9.402,4.544-16.938c0-4.286-0.536-8.03-1.608-11.232
		s-2.64-5.688-4.704-7.458c-2.063-1.77-4.38-2.654-6.949-2.654c-3.844,0-7.033,1.788-9.566,5.363c-2.533,3.576-3.8,8.915-3.8,16.017
		c0,6.886,1.253,12.171,3.76,15.854s5.709,5.525,9.606,5.525c1.842,0,3.579-0.47,5.208-1.408c-1.612-1.421-3.313-2.432-5.102-3.034
		L56.536,73.506z"/>
	<path id="flowRoot5534" d="M89.325,102.566h-2.941V82.645c-0.708,0.718-1.638,1.436-2.786,2.154
		c-1.15,0.717-2.183,1.256-3.098,1.615v-3.022c1.645-0.822,3.084-1.817,4.314-2.987c1.231-1.17,2.104-2.305,2.615-3.404h1.896
		V102.566z M96.876,90.009c0-3.011,0.292-5.434,0.874-7.269c0.583-1.836,1.449-3.251,2.599-4.246
		c1.149-0.996,2.597-1.494,4.339-1.494c1.286,0,2.414,0.275,3.383,0.824c0.971,0.551,1.771,1.344,2.403,2.381
		c0.632,1.035,1.128,2.298,1.487,3.785c0.359,1.488,0.539,3.494,0.539,6.019c0,2.987-0.289,5.398-0.866,7.233
		c-0.577,1.836-1.44,3.254-2.591,4.256c-1.148,1.001-2.602,1.502-4.355,1.502c-2.31,0-4.123-0.88-5.441-2.641
		C97.666,98.241,96.876,94.791,96.876,90.009L96.876,90.009z M99.899,90.009c0,4.18,0.46,6.962,1.381,8.345
		c0.921,1.385,2.057,2.076,3.407,2.076c1.352,0,2.487-0.695,3.408-2.084c0.92-1.39,1.381-4.168,1.381-8.337
		c0-4.191-0.461-6.976-1.381-8.354c-0.921-1.377-2.067-2.066-3.44-2.066c-1.351,0-2.43,0.607-3.235,1.824
		C100.406,82.963,99.899,85.828,99.899,90.009L99.899,90.009z"/>
</g>
</svg>
