<?xml version="1.0" encoding="utf-8"?>
<!-- Generator: Adobe Illustrator 13.0.0, SVG Export Plug-In . SVG Version: 6.00 Build 14948)  -->
<!DOCTYPE svg PUBLIC "-//W3C//DTD SVG 1.1//EN" "http://www.w3.org/Graphics/SVG/1.1/DTD/svg11.dtd">
<svg version="1.1"
	 id="svg4486" sodipodi:version="0.32" sodipodi:docname="scrabble2.svg" inkscape:version="0.46" inkscape:output_extension="org.inkscape.output.svg.inkscape" xmlns:cc="http://creativecommons.org/ns#" xmlns:rdf="http://www.w3.org/1999/02/22-rdf-syntax-ns#" xmlns:svg="http://www.w3.org/2000/svg" xmlns:sodipodi="http://sodipodi.sourceforge.net/DTD/sodipodi-0.dtd" xmlns:inkscape="http://www.inkscape.org/namespaces/inkscape" xmlns:dc="http://purl.org/dc/elements/1.1/"
	 xmlns="http://www.w3.org/2000/svg" xmlns:xlink="http://www.w3.org/1999/xlink" x="0px" y="0px" width="135px" height="135px"
	 viewBox="0 0 135 135" enable-background="new 0 0 135 135" xml:space="preserve">
<defs>
	
	
		<inkscape:perspective  id="perspective4493" inkscape:persp3d-origin="372.04724 : 350.78739 : 1" inkscape:vp_z="744.09448 : 526.18109 : 1" inkscape:vp_y="0 : 1000 : 0" inkscape:vp_x="0 : 526.18109 : 1" sodipodi:type="inkscape:persp3d">
		</inkscape:perspective>
	
		<inkscape:perspective  id="perspective4757" inkscape:persp3d-origin="372.04724 : 350.78739 : 1" inkscape:vp_z="744.09448 : 526.18109 : 1" inkscape:vp_y="0 : 1000 : 0" inkscape:vp_x="0 : 526.18109 : 1" sodipodi:type="inkscape:persp3d">
		</inkscape:perspective>
	
		<inkscape:perspective  id="perspective4846" inkscape:persp3d-origin="372.04724 : 350.78739 : 1" inkscape:vp_z="744.09448 : 526.18109 : 1" inkscape:vp_y="0 : 1000 : 0" inkscape:vp_x="0 : 526.18109 : 1" sodipodi:type="inkscape:persp3d">
		</inkscape:perspective>
</defs>
<sodipodi:namedview  id="base" inkscape:current-layer="svg4486" inkscape:window-y="-4" inkscape:window-x="-4" inkscape:pageopacity="0.0" inkscape:pageshadow="2" inkscape:window-width="1024" inkscape:window-height="712" inkscape:cy="63.542193" inkscape:cx="97.361409" inkscape:zoom="3.696" showgrid="false" pagecolor="#ffffff" bordercolor="#666666" borderopacity="1.0" objecttolerance="10.0" gridtolerance="10.0" guidetolerance="10.0">
	</sodipodi:namedview>
<g id="flowRoot4498" transform="matrix(0.2827418,0,0,0.264,25.034186,-6.75758)">
</g>
<path id="rect3326" fill="#D4C462" d="M15.464,5h104.072C125.315,5,130,9.685,130,15.464v104.072
	c0,5.778-4.685,10.464-10.464,10.464H15.464C9.685,130,5,125.314,5,119.536V15.464C5,9.685,9.685,5,15.464,5z"/>
<path id="flowRoot4857" d="M39.5,92.25v-58h15c3.386,0,5.97,0.277,7.752,0.831c2.495,0.765,4.624,2.15,6.386,4.154
	c2.297,2.585,4.015,5.889,5.153,9.911c1.139,4.022,1.708,8.618,1.708,13.788c0,4.405-0.387,8.309-1.158,11.711
	c-0.772,3.402-1.763,6.218-2.971,8.447c-1.207,2.229-2.529,3.982-3.965,5.262c-1.436,1.279-3.168,2.248-5.198,2.907
	s-4.361,0.989-6.995,0.989H39.5z M45.262,85.406h9.297c2.871,0,5.124-0.357,6.757-1.068c1.634-0.713,2.936-1.715,3.906-3.008
	c1.366-1.819,2.431-4.266,3.193-7.338c0.762-3.074,1.144-6.799,1.144-11.177c0-6.066-0.747-10.729-2.243-13.986
	c-1.495-3.257-3.312-5.44-5.451-6.548c-1.544-0.791-4.03-1.187-7.455-1.187h-9.149V85.406z"/>
<path id="flowRoot4868" d="M104.5,99.944V103H88.533c-0.022-0.766,0.094-1.502,0.346-2.208c0.406-1.165,1.058-2.313,1.953-3.444
	c0.895-1.131,2.188-2.438,3.88-3.921c2.626-2.308,4.399-4.136,5.323-5.484c0.922-1.349,1.383-2.623,1.383-3.824
	c0-1.26-0.42-2.323-1.26-3.188s-1.936-1.298-3.287-1.298c-1.428,0-2.57,0.46-3.428,1.378s-1.291,2.189-1.302,3.814l-3.048-0.335
	c0.208-2.438,0.994-4.296,2.355-5.573C92.812,77.639,94.641,77,96.937,77c2.317,0,4.152,0.689,5.504,2.066
	c1.351,1.378,2.026,3.086,2.026,5.123c0,1.035-0.197,2.055-0.593,3.055c-0.396,1.002-1.052,2.055-1.97,3.162
	c-0.917,1.107-2.441,2.626-4.572,4.557c-1.779,1.602-2.922,2.688-3.428,3.26c-0.505,0.57-0.922,1.145-1.252,1.722H104.5z"/>
</svg>
