<?xml version="1.0" encoding="utf-8"?>
<!-- Generator: Adobe Illustrator 13.0.0, SVG Export Plug-In . SVG Version: 6.00 Build 14948)  -->
<!DOCTYPE svg PUBLIC "-//W3C//DTD SVG 1.1//EN" "http://www.w3.org/Graphics/SVG/1.1/DTD/svg11.dtd">
<svg version="1.1"
	 id="svg4486" sodipodi:version="0.32" sodipodi:docname="tryout.svg" inkscape:version="0.46" inkscape:output_extension="org.inkscape.output.svg.inkscape" xmlns:cc="http://creativecommons.org/ns#" xmlns:rdf="http://www.w3.org/1999/02/22-rdf-syntax-ns#" xmlns:svg="http://www.w3.org/2000/svg" xmlns:sodipodi="http://sodipodi.sourceforge.net/DTD/sodipodi-0.dtd" xmlns:inkscape="http://www.inkscape.org/namespaces/inkscape" xmlns:dc="http://purl.org/dc/elements/1.1/"
	 xmlns="http://www.w3.org/2000/svg" xmlns:xlink="http://www.w3.org/1999/xlink" x="0px" y="0px" width="135px" height="135px"
	 viewBox="0 0 135 135" enable-background="new 0 0 135 135" xml:space="preserve">
<defs>
	
	
		<inkscape:perspective  id="perspective4493" inkscape:persp3d-origin="372.04724 : 350.78739 : 1" inkscape:vp_z="744.09448 : 526.18109 : 1" inkscape:vp_y="0 : 1000 : 0" inkscape:vp_x="0 : 526.18109 : 1" sodipodi:type="inkscape:persp3d">
		</inkscape:perspective>
	
		<inkscape:perspective  id="perspective4757" inkscape:persp3d-origin="372.04724 : 350.78739 : 1" inkscape:vp_z="744.09448 : 526.18109 : 1" inkscape:vp_y="0 : 1000 : 0" inkscape:vp_x="0 : 526.18109 : 1" sodipodi:type="inkscape:persp3d">
		</inkscape:perspective>
</defs>
<sodipodi:namedview  id="base" inkscape:current-layer="svg4486" inkscape:window-y="-4" inkscape:window-x="-4" inkscape:pageopacity="0.0" inkscape:pageshadow="2" inkscape:window-width="1024" inkscape:window-height="712" inkscape:cy="67.255892" inkscape:cx="41.328223" inkscape:zoom="3.696" showgrid="false" pagecolor="#ffffff" bordercolor="#666666" borderopacity="1.0" objecttolerance="10.0" gridtolerance="10.0" guidetolerance="10.0">
	</sodipodi:namedview>
<g id="g5497">
	<path id="rect3326" fill="#D4C462" d="M15.464,5h104.072C125.315,5,130,9.685,130,15.464v104.072
		c0,5.778-4.685,10.464-10.464,10.464H15.464C9.685,130,5,125.314,5,119.536V15.464C5,9.685,9.685,5,15.464,5z"/>
	<g id="flowRoot4498" transform="matrix(0.2827418,0,0,0.264,25.034186,-6.75758)">
	</g>
	<path id="flowRoot4514" d="M88.5,95.832l3-0.417c0.344,1.771,0.931,3.046,1.758,3.827c0.828,0.781,1.836,1.172,3.025,1.172
		c1.411,0,2.604-0.51,3.575-1.527c0.972-1.019,1.458-2.279,1.458-3.783c0-1.436-0.449-2.619-1.35-3.551
		c-0.9-0.931-2.045-1.396-3.434-1.396c-0.566,0-1.271,0.115-2.117,0.348l0.334-2.742c0.2,0.022,0.361,0.034,0.483,0.034
		c1.278,0,2.428-0.347,3.45-1.042c1.021-0.693,1.533-1.764,1.533-3.211c0-1.145-0.373-2.094-1.117-2.846s-1.705-1.129-2.883-1.129
		c-1.167,0-2.139,0.383-2.917,1.146s-1.277,1.908-1.5,3.436l-3-0.555c0.366-2.095,1.2-3.717,2.5-4.869
		C92.6,77.576,94.217,77,96.15,77c1.333,0,2.561,0.298,3.684,0.895c1.121,0.596,1.98,1.408,2.574,2.438
		c0.595,1.03,0.892,2.123,0.892,3.281c0,1.099-0.283,2.1-0.85,3.002c-0.567,0.902-1.405,1.62-2.517,2.152
		c1.444,0.348,2.566,1.067,3.366,2.161c0.8,1.093,1.2,2.462,1.2,4.104c0,2.222-0.777,4.105-2.334,5.65
		c-1.555,1.544-3.521,2.316-5.899,2.316c-2.145,0-3.925-0.666-5.342-1.996S88.7,97.949,88.5,95.832L88.5,95.832z"/>
	<path id="flowRoot5488" d="M40.5,92.25v-58h14.826c2.609,0,4.603,0.185,5.979,0.554c1.93,0.475,3.548,1.378,4.853,2.71
		s2.355,3.198,3.15,5.598c0.795,2.4,1.193,5.038,1.193,7.913c0,4.932-1.063,9.106-3.19,12.522s-5.97,5.123-11.528,5.123H45.701
		v23.58H40.5z M45.701,61.826h10.161c3.36,0,5.746-0.923,7.158-2.77c1.412-1.846,2.118-4.444,2.118-7.794
		c0-2.426-0.416-4.503-1.247-6.231c-0.832-1.728-1.926-2.868-3.284-3.422c-0.876-0.343-2.494-0.514-4.853-0.515H45.701V61.826z"/>
</g>
</svg>
