<?xml version="1.0" encoding="utf-8"?>
<!-- Generator: Adobe Illustrator 13.0.0, SVG Export Plug-In . SVG Version: 6.00 Build 14948)  -->
<!DOCTYPE svg PUBLIC "-//W3C//DTD SVG 1.1//EN" "http://www.w3.org/Graphics/SVG/1.1/DTD/svg11.dtd">
<svg version="1.1"
	 id="svg4486" sodipodi:version="0.32" sodipodi:docname="tryout.svg" inkscape:version="0.46" inkscape:output_extension="org.inkscape.output.svg.inkscape" xmlns:cc="http://creativecommons.org/ns#" xmlns:rdf="http://www.w3.org/1999/02/22-rdf-syntax-ns#" xmlns:svg="http://www.w3.org/2000/svg" xmlns:sodipodi="http://sodipodi.sourceforge.net/DTD/sodipodi-0.dtd" xmlns:inkscape="http://www.inkscape.org/namespaces/inkscape" xmlns:dc="http://purl.org/dc/elements/1.1/"
	 xmlns="http://www.w3.org/2000/svg" xmlns:xlink="http://www.w3.org/1999/xlink" x="0px" y="0px" width="135px" height="135px"
	 viewBox="0 0 135 135" enable-background="new 0 0 135 135" xml:space="preserve">
<defs>
	
	
		<inkscape:perspective  id="perspective4493" inkscape:persp3d-origin="372.04724 : 350.78739 : 1" inkscape:vp_z="744.09448 : 526.18109 : 1" inkscape:vp_y="0 : 1000 : 0" inkscape:vp_x="0 : 526.18109 : 1" sodipodi:type="inkscape:persp3d">
		</inkscape:perspective>
	
		<inkscape:perspective  id="perspective4757" inkscape:persp3d-origin="372.04724 : 350.78739 : 1" inkscape:vp_z="744.09448 : 526.18109 : 1" inkscape:vp_y="0 : 1000 : 0" inkscape:vp_x="0 : 526.18109 : 1" sodipodi:type="inkscape:persp3d">
		</inkscape:perspective>
	
		<inkscape:perspective  id="perspective4846" inkscape:persp3d-origin="372.04724 : 350.78739 : 1" inkscape:vp_z="744.09448 : 526.18109 : 1" inkscape:vp_y="0 : 1000 : 0" inkscape:vp_x="0 : 526.18109 : 1" sodipodi:type="inkscape:persp3d">
		</inkscape:perspective>
	
		<inkscape:perspective  id="perspective4950" inkscape:persp3d-origin="372.04724 : 350.78739 : 1" inkscape:vp_z="744.09448 : 526.18109 : 1" inkscape:vp_y="0 : 1000 : 0" inkscape:vp_x="0 : 526.18109 : 1" sodipodi:type="inkscape:persp3d">
		</inkscape:perspective>
	
		<inkscape:perspective  id="perspective5060" inkscape:persp3d-origin="372.04724 : 350.78739 : 1" inkscape:vp_z="744.09448 : 526.18109 : 1" inkscape:vp_y="0 : 1000 : 0" inkscape:vp_x="0 : 526.18109 : 1" sodipodi:type="inkscape:persp3d">
		</inkscape:perspective>
</defs>
<sodipodi:namedview  id="base" inkscape:current-layer="svg4486" inkscape:window-y="-4" inkscape:window-x="-4" inkscape:pageopacity="0.0" inkscape:pageshadow="2" inkscape:window-width="1024" inkscape:window-height="712" inkscape:cy="67.255892" inkscape:cx="41.328223" inkscape:zoom="3.696" showgrid="false" pagecolor="#ffffff" bordercolor="#666666" borderopacity="1.0" objecttolerance="10.0" gridtolerance="10.0" guidetolerance="10.0">
	</sodipodi:namedview>
<g id="g5404">
	<g id="flowRoot4498" transform="matrix(0.2827418,0,0,0.264,25.034186,-6.75758)">
	</g>
	<path id="rect3326" fill="#D4C462" d="M15.464,5h104.072C125.333,5,130,9.667,130,15.464v104.072
		c0,5.797-4.667,10.464-10.464,10.464H15.464C9.667,130,5,125.333,5,119.536V15.464C5,9.667,9.667,5,15.464,5z"/>
	<path id="flowRoot5386" d="M38.5,92.25v-58h8.349l9.921,41.066c0.915,3.824,1.582,6.687,2.001,8.586
		c0.477-2.11,1.22-5.209,2.23-9.298L71.037,34.25H78.5v58h-5.347V43.706L60.973,92.25H55.97L43.847,42.875V92.25H38.5z"/>
	<path id="text5394" d="M88.513,95.832l3-0.417c0.345,1.771,0.931,3.046,1.759,3.827s1.836,1.172,3.024,1.172
		c1.411,0,2.603-0.51,3.575-1.527c0.973-1.019,1.459-2.279,1.459-3.783c0-1.436-0.451-2.619-1.351-3.551
		c-0.899-0.931-2.044-1.396-3.434-1.396c-0.566,0-1.272,0.115-2.116,0.348l0.333-2.742c0.2,0.022,0.361,0.034,0.483,0.034
		c1.277,0,2.428-0.347,3.45-1.042c1.022-0.693,1.533-1.764,1.533-3.211c0-1.145-0.372-2.094-1.116-2.846
		c-0.745-0.752-1.706-1.129-2.884-1.129c-1.167,0-2.14,0.383-2.917,1.146s-1.277,1.908-1.5,3.436l-3-0.555
		c0.367-2.095,1.2-3.717,2.5-4.869c1.301-1.15,2.917-1.727,4.85-1.727c1.334,0,2.563,0.298,3.684,0.895
		c1.123,0.596,1.98,1.408,2.575,2.438c0.595,1.03,0.892,2.123,0.892,3.281c0,1.099-0.283,2.1-0.85,3.002s-1.406,1.62-2.517,2.152
		c1.444,0.348,2.566,1.067,3.366,2.161c0.801,1.093,1.2,2.462,1.2,4.104c0,2.222-0.778,4.105-2.333,5.65
		c-1.556,1.544-3.522,2.316-5.9,2.316c-2.145,0-3.925-0.666-5.342-1.996C89.521,99.674,88.713,97.949,88.513,95.832L88.513,95.832z"
		/>
</g>
</svg>
