<?xml version="1.0" encoding="utf-8"?>
<!-- Generator: Adobe Illustrator 13.0.0, SVG Export Plug-In . SVG Version: 6.00 Build 14948)  -->
<!DOCTYPE svg PUBLIC "-//W3C//DTD SVG 1.1//EN" "http://www.w3.org/Graphics/SVG/1.1/DTD/svg11.dtd">
<svg version="1.1"
	 id="svg4486" sodipodi:version="0.32" sodipodi:docname="scrabble2.svg" inkscape:version="0.46" inkscape:output_extension="org.inkscape.output.svg.inkscape" xmlns:cc="http://creativecommons.org/ns#" xmlns:rdf="http://www.w3.org/1999/02/22-rdf-syntax-ns#" xmlns:svg="http://www.w3.org/2000/svg" xmlns:sodipodi="http://sodipodi.sourceforge.net/DTD/sodipodi-0.dtd" xmlns:inkscape="http://www.inkscape.org/namespaces/inkscape" xmlns:dc="http://purl.org/dc/elements/1.1/"
	 xmlns="http://www.w3.org/2000/svg" xmlns:xlink="http://www.w3.org/1999/xlink" x="0px" y="0px" width="135px" height="135px"
	 viewBox="0 0 135 135" enable-background="new 0 0 135 135" xml:space="preserve">
<defs>
	
	
		<inkscape:perspective  id="perspective4493" inkscape:persp3d-origin="372.04724 : 350.78739 : 1" inkscape:vp_z="744.09448 : 526.18109 : 1" inkscape:vp_y="0 : 1000 : 0" inkscape:vp_x="0 : 526.18109 : 1" sodipodi:type="inkscape:persp3d">
		</inkscape:perspective>
</defs>
<sodipodi:namedview  id="base" inkscape:current-layer="svg4486" inkscape:window-y="-4" inkscape:window-x="-4" inkscape:pageopacity="0.0" inkscape:pageshadow="2" inkscape:window-width="1024" inkscape:window-height="712" inkscape:cy="66.017316" inkscape:cx="97.361409" inkscape:zoom="3.696" showgrid="false" pagecolor="#ffffff" bordercolor="#666666" borderopacity="1.0" objecttolerance="10.0" gridtolerance="10.0" guidetolerance="10.0">
	</sodipodi:namedview>
<g id="g4614">
	<path id="rect3326" fill="#D4C462" d="M15.464,5h104.072C125.315,5,130,9.685,130,15.464v104.072
		c0,5.778-4.685,10.464-10.464,10.464H15.464C9.685,130,5,125.314,5,119.536V15.464C5,9.685,9.685,5,15.464,5z"/>
	<g id="flowRoot4498" transform="matrix(0.2827418,0,0,0.264,25.034186,-6.75758)">
	</g>
	<path id="flowRoot4506" d="M40.5,92.25v-58h16.147c3.288,0,5.925,0.587,7.912,1.761c1.986,1.173,3.542,2.98,4.668,5.42
		c1.126,2.44,1.688,4.992,1.688,7.656c0,2.479-0.5,4.813-1.498,7.002c-0.998,2.189-2.505,3.957-4.521,5.302
		c2.603,1.029,4.605,2.783,6.003,5.262c1.4,2.479,2.1,5.407,2.1,8.783c0,2.717-0.426,5.242-1.277,7.576s-1.903,4.135-3.156,5.4
		c-1.252,1.266-2.823,2.223-4.711,2.869c-1.889,0.646-4.204,0.969-6.943,0.969H40.5z M46.196,58.621h9.307
		c2.524,0,4.335-0.224,5.431-0.672c1.448-0.581,2.54-1.543,3.273-2.888s1.101-3.033,1.101-5.064c0-1.925-0.343-3.62-1.028-5.083
		s-1.664-2.466-2.936-3.007c-1.272-0.541-3.455-0.811-6.547-0.812h-8.602V58.621z M46.196,85.406h10.716
		c1.84,0,3.131-0.094,3.875-0.277c1.312-0.316,2.408-0.844,3.289-1.583c0.88-0.738,1.604-1.813,2.172-3.224
		c0.567-1.412,0.852-3.041,0.852-4.887c0-2.162-0.411-4.042-1.233-5.638c-0.822-1.596-1.962-2.717-3.42-3.363
		c-1.458-0.646-3.558-0.97-6.298-0.97h-9.952V85.406z"/>
	<path id="flowRoot4514" d="M88.5,95.832l3-0.417c0.344,1.771,0.931,3.046,1.758,3.827c0.828,0.781,1.836,1.172,3.025,1.172
		c1.411,0,2.604-0.51,3.575-1.527c0.972-1.019,1.458-2.279,1.458-3.783c0-1.436-0.449-2.619-1.35-3.551
		c-0.9-0.931-2.045-1.396-3.434-1.396c-0.566,0-1.271,0.115-2.117,0.348l0.334-2.742c0.2,0.022,0.361,0.034,0.483,0.034
		c1.278,0,2.428-0.347,3.45-1.042c1.021-0.693,1.533-1.764,1.533-3.211c0-1.145-0.373-2.094-1.117-2.846s-1.705-1.129-2.883-1.129
		c-1.167,0-2.139,0.383-2.917,1.146s-1.278,1.908-1.5,3.436l-3-0.555c0.366-2.095,1.2-3.717,2.5-4.869
		C92.6,77.576,94.217,77,96.15,77c1.333,0,2.561,0.298,3.684,0.895c1.121,0.596,1.98,1.408,2.574,2.438
		c0.595,1.03,0.892,2.123,0.892,3.281c0,1.099-0.283,2.1-0.85,3.002c-0.567,0.902-1.405,1.62-2.517,2.152
		c1.444,0.348,2.566,1.067,3.366,2.161c0.8,1.093,1.2,2.462,1.2,4.104c0,2.222-0.777,4.105-2.334,5.65
		c-1.555,1.544-3.521,2.316-5.899,2.316c-2.145,0-3.925-0.666-5.342-1.996S88.7,97.949,88.5,95.832L88.5,95.832z"/>
</g>
</svg>
