<?xml version="1.0" encoding="utf-8"?>
<!-- Generator: Adobe Illustrator 13.0.0, SVG Export Plug-In . SVG Version: 6.00 Build 14948)  -->
<!DOCTYPE svg PUBLIC "-//W3C//DTD SVG 1.0//EN" "http://www.w3.org/TR/2001/REC-SVG-20010904/DTD/svg10.dtd">
<svg version="1.0"
	 id="svg4486" sodipodi:version="0.32" sodipodi:docname="tryout.svg" inkscape:version="0.46" inkscape:output_extension="org.inkscape.output.svg.inkscape" xmlns:cc="http://creativecommons.org/ns#" xmlns:rdf="http://www.w3.org/1999/02/22-rdf-syntax-ns#" xmlns:svg="http://www.w3.org/2000/svg" xmlns:sodipodi="http://sodipodi.sourceforge.net/DTD/sodipodi-0.dtd" xmlns:inkscape="http://www.inkscape.org/namespaces/inkscape" xmlns:dc="http://purl.org/dc/elements/1.1/"
	 xmlns="http://www.w3.org/2000/svg" xmlns:xlink="http://www.w3.org/1999/xlink" x="0px" y="0px" width="135px" height="135px"
	 viewBox="0 0 135 135" enable-background="new 0 0 135 135" xml:space="preserve">
<defs>
	
	
		<inkscape:perspective  id="perspective4493" inkscape:persp3d-origin="372.04724 : 350.78739 : 1" inkscape:vp_z="744.09448 : 526.18109 : 1" inkscape:vp_y="0 : 1000 : 0" inkscape:vp_x="0 : 526.18109 : 1" sodipodi:type="inkscape:persp3d">
		</inkscape:perspective>
	
		<inkscape:perspective  id="perspective4757" inkscape:persp3d-origin="372.04724 : 350.78739 : 1" inkscape:vp_z="744.09448 : 526.18109 : 1" inkscape:vp_y="0 : 1000 : 0" inkscape:vp_x="0 : 526.18109 : 1" sodipodi:type="inkscape:persp3d">
		</inkscape:perspective>
	
		<inkscape:perspective  id="perspective4846" inkscape:persp3d-origin="372.04724 : 350.78739 : 1" inkscape:vp_z="744.09448 : 526.18109 : 1" inkscape:vp_y="0 : 1000 : 0" inkscape:vp_x="0 : 526.18109 : 1" sodipodi:type="inkscape:persp3d">
		</inkscape:perspective>
	
		<inkscape:perspective  id="perspective4950" inkscape:persp3d-origin="372.04724 : 350.78739 : 1" inkscape:vp_z="744.09448 : 526.18109 : 1" inkscape:vp_y="0 : 1000 : 0" inkscape:vp_x="0 : 526.18109 : 1" sodipodi:type="inkscape:persp3d">
		</inkscape:perspective>
	
		<inkscape:perspective  id="perspective5060" inkscape:persp3d-origin="372.04724 : 350.78739 : 1" inkscape:vp_z="744.09448 : 526.18109 : 1" inkscape:vp_y="0 : 1000 : 0" inkscape:vp_x="0 : 526.18109 : 1" sodipodi:type="inkscape:persp3d">
		</inkscape:perspective>
	
		<inkscape:perspective  id="perspective5342" inkscape:persp3d-origin="372.04724 : 350.78739 : 1" inkscape:vp_z="744.09448 : 526.18109 : 1" inkscape:vp_y="0 : 1000 : 0" inkscape:vp_x="0 : 526.18109 : 1" sodipodi:type="inkscape:persp3d">
		</inkscape:perspective>
</defs>
<sodipodi:namedview  id="base" inkscape:current-layer="svg4486" inkscape:window-y="-4" inkscape:window-x="-4" inkscape:pageopacity="0.0" inkscape:pageshadow="2" inkscape:window-width="1024" inkscape:window-height="712" inkscape:cy="2.3208266" inkscape:cx="-41.489628" inkscape:zoom="1.3067333" showgrid="false" pagecolor="#ffffff" bordercolor="#666666" borderopacity="1.0" objecttolerance="10.0" gridtolerance="10.0" guidetolerance="10.0">
	</sodipodi:namedview>
<g id="g5367">
	<g id="flowRoot4498" transform="matrix(0.2827418,0,0,0.264,25.034186,-6.75758)">
	</g>
	<path id="rect3326" fill="#D4C462" d="M15.464,5h104.072C125.333,5,130,9.667,130,15.464v104.072
		c0,5.797-4.667,10.464-10.464,10.464H15.464C9.667,130,5,125.333,5,119.536V15.464C5,9.667,9.667,5,15.464,5z"/>
	<path id="flowRoot5348" d="M40.5,92.25v-58h6.243v28.763L70.168,34.25h8.463l-19.789,23.5L79.5,92.25h-8.238L54.465,62.894
		l-7.723,9.258V92.25H40.5z"/>
	<path id="text5360" d="M88.5,95.771l3.111-0.283c0.23,1.626,0.766,2.849,1.604,3.668c0.84,0.818,1.853,1.229,3.037,1.229
		c1.427,0,2.634-0.578,3.622-1.732c0.987-1.155,1.48-2.688,1.48-4.596c0-1.814-0.475-3.246-1.424-4.295s-2.191-1.573-3.729-1.573
		c-0.954,0-1.815,0.232-2.584,0.698c-0.768,0.465-1.371,1.068-1.811,1.812l-2.781-0.39L91.364,77h12v3.04h-9.63l-1.301,6.964
		c1.449-1.084,2.969-1.626,4.561-1.626c2.106,0,3.885,0.784,5.333,2.351c1.448,1.567,2.173,3.582,2.173,6.045
		c0,2.346-0.637,4.371-1.91,6.08c-1.547,2.098-3.659,3.146-6.337,3.146c-2.194,0-3.986-0.66-5.374-1.979
		C89.49,99.701,88.697,97.951,88.5,95.771L88.5,95.771z"/>
</g>
</svg>
