<?xml version="1.0" encoding="utf-8"?>
<!-- Generator: Adobe Illustrator 13.0.0, SVG Export Plug-In . SVG Version: 6.00 Build 14948)  -->
<!DOCTYPE svg PUBLIC "-//W3C//DTD SVG 1.1//EN" "http://www.w3.org/Graphics/SVG/1.1/DTD/svg11.dtd">
<svg version="1.1"
	 id="svg4486" sodipodi:version="0.32" sodipodi:docname="tryout.svg" inkscape:version="0.46" inkscape:output_extension="org.inkscape.output.svg.inkscape" xmlns:cc="http://creativecommons.org/ns#" xmlns:rdf="http://www.w3.org/1999/02/22-rdf-syntax-ns#" xmlns:svg="http://www.w3.org/2000/svg" xmlns:sodipodi="http://sodipodi.sourceforge.net/DTD/sodipodi-0.dtd" xmlns:inkscape="http://www.inkscape.org/namespaces/inkscape" xmlns:dc="http://purl.org/dc/elements/1.1/"
	 xmlns="http://www.w3.org/2000/svg" xmlns:xlink="http://www.w3.org/1999/xlink" x="0px" y="0px" width="135px" height="135px"
	 viewBox="0 0 135 135" enable-background="new 0 0 135 135" xml:space="preserve">
<defs>
	
	
		<inkscape:perspective  id="perspective4493" inkscape:persp3d-origin="372.04724 : 350.78739 : 1" inkscape:vp_z="744.09448 : 526.18109 : 1" inkscape:vp_y="0 : 1000 : 0" inkscape:vp_x="0 : 526.18109 : 1" sodipodi:type="inkscape:persp3d">
		</inkscape:perspective>
	
		<inkscape:perspective  id="perspective4757" inkscape:persp3d-origin="372.04724 : 350.78739 : 1" inkscape:vp_z="744.09448 : 526.18109 : 1" inkscape:vp_y="0 : 1000 : 0" inkscape:vp_x="0 : 526.18109 : 1" sodipodi:type="inkscape:persp3d">
		</inkscape:perspective>
	
		<inkscape:perspective  id="perspective4846" inkscape:persp3d-origin="372.04724 : 350.78739 : 1" inkscape:vp_z="744.09448 : 526.18109 : 1" inkscape:vp_y="0 : 1000 : 0" inkscape:vp_x="0 : 526.18109 : 1" sodipodi:type="inkscape:persp3d">
		</inkscape:perspective>
	
		<inkscape:perspective  id="perspective4950" inkscape:persp3d-origin="372.04724 : 350.78739 : 1" inkscape:vp_z="744.09448 : 526.18109 : 1" inkscape:vp_y="0 : 1000 : 0" inkscape:vp_x="0 : 526.18109 : 1" sodipodi:type="inkscape:persp3d">
		</inkscape:perspective>
	
		<inkscape:perspective  id="perspective5060" inkscape:persp3d-origin="372.04724 : 350.78739 : 1" inkscape:vp_z="744.09448 : 526.18109 : 1" inkscape:vp_y="0 : 1000 : 0" inkscape:vp_x="0 : 526.18109 : 1" sodipodi:type="inkscape:persp3d">
		</inkscape:perspective>
</defs>
<sodipodi:namedview  id="base" inkscape:current-layer="svg4486" inkscape:window-y="-4" inkscape:window-x="-4" inkscape:pageopacity="0.0" inkscape:pageshadow="2" inkscape:window-width="1024" inkscape:window-height="712" inkscape:cy="67.255892" inkscape:cx="41.328223" inkscape:zoom="3.696" showgrid="false" pagecolor="#ffffff" bordercolor="#666666" borderopacity="1.0" objecttolerance="10.0" gridtolerance="10.0" guidetolerance="10.0">
	</sodipodi:namedview>
<g id="g5479">
	<g id="flowRoot4498" transform="matrix(0.2827418,0,0,0.264,25.034186,-6.75758)">
	</g>
	<path id="rect3326" fill="#D4C462" d="M15.464,5h104.072C125.333,5,130,9.667,130,15.464v104.072
		c0,5.797-4.667,10.464-10.464,10.464H15.464C9.667,130,5,125.333,5,119.536V15.464C5,9.667,9.667,5,15.464,5z"/>
	<path id="flowRoot4964" d="M99,103h-3.5V82.74c-0.843,0.73-1.947,1.461-3.315,2.19s-2.596,1.278-3.685,1.643V83.5
		c1.957-0.836,3.668-1.849,5.133-3.038s2.502-2.343,3.111-3.462H99V103z"/>
	<path id="flowRoot5470" d="M38,63.996c0-9.304,1.631-16.587,4.893-21.851c3.262-5.263,7.473-7.895,12.632-7.895
		c3.378,0,6.424,1.236,9.137,3.708c2.712,2.473,4.78,5.92,6.203,10.342C72.289,52.723,73,57.738,73,63.346
		c0,5.684-0.749,10.77-2.246,15.255c-1.498,4.486-3.621,7.882-6.367,10.189c-2.746,2.307-5.708,3.46-8.887,3.46
		c-3.445,0-6.524-1.274-9.237-3.823s-4.768-6.028-6.166-10.438C38.699,73.58,38,68.915,38,63.996L38,63.996z M42.993,64.11
		c0,6.755,1.186,12.075,3.558,15.962c2.372,3.888,5.347,5.831,8.925,5.831c3.645,0,6.645-1.962,9-5.888s3.533-9.494,3.533-16.708
		c0-4.563-0.504-8.545-1.511-11.948s-2.479-6.041-4.418-7.914s-4.115-2.81-6.528-2.81c-3.428,0-6.378,1.803-8.85,5.41
		C44.229,49.652,42.993,55.673,42.993,64.11L42.993,64.11z"/>
</g>
</svg>
