<?xml version="1.0" encoding="utf-8"?>
<!-- Generator: Adobe Illustrator 13.0.0, SVG Export Plug-In . SVG Version: 6.00 Build 14948)  -->
<!DOCTYPE svg PUBLIC "-//W3C//DTD SVG 1.1//EN" "http://www.w3.org/Graphics/SVG/1.1/DTD/svg11.dtd">
<svg version="1.1"
	 id="svg4486" sodipodi:version="0.32" sodipodi:docname="tryout.svg" inkscape:version="0.46" inkscape:output_extension="org.inkscape.output.svg.inkscape" xmlns:cc="http://creativecommons.org/ns#" xmlns:rdf="http://www.w3.org/1999/02/22-rdf-syntax-ns#" xmlns:svg="http://www.w3.org/2000/svg" xmlns:sodipodi="http://sodipodi.sourceforge.net/DTD/sodipodi-0.dtd" xmlns:inkscape="http://www.inkscape.org/namespaces/inkscape" xmlns:dc="http://purl.org/dc/elements/1.1/"
	 xmlns="http://www.w3.org/2000/svg" xmlns:xlink="http://www.w3.org/1999/xlink" x="0px" y="0px" width="135px" height="135px"
	 viewBox="0 0 135 135" enable-background="new 0 0 135 135" xml:space="preserve">
<defs>
	
	
		<inkscape:perspective  id="perspective4493" inkscape:persp3d-origin="372.04724 : 350.78739 : 1" inkscape:vp_z="744.09448 : 526.18109 : 1" inkscape:vp_y="0 : 1000 : 0" inkscape:vp_x="0 : 526.18109 : 1" sodipodi:type="inkscape:persp3d">
		</inkscape:perspective>
	
		<inkscape:perspective  id="perspective4757" inkscape:persp3d-origin="372.04724 : 350.78739 : 1" inkscape:vp_z="744.09448 : 526.18109 : 1" inkscape:vp_y="0 : 1000 : 0" inkscape:vp_x="0 : 526.18109 : 1" sodipodi:type="inkscape:persp3d">
		</inkscape:perspective>
	
		<inkscape:perspective  id="perspective4846" inkscape:persp3d-origin="372.04724 : 350.78739 : 1" inkscape:vp_z="744.09448 : 526.18109 : 1" inkscape:vp_y="0 : 1000 : 0" inkscape:vp_x="0 : 526.18109 : 1" sodipodi:type="inkscape:persp3d">
		</inkscape:perspective>
	
		<inkscape:perspective  id="perspective4950" inkscape:persp3d-origin="372.04724 : 350.78739 : 1" inkscape:vp_z="744.09448 : 526.18109 : 1" inkscape:vp_y="0 : 1000 : 0" inkscape:vp_x="0 : 526.18109 : 1" sodipodi:type="inkscape:persp3d">
		</inkscape:perspective>
	
		<inkscape:perspective  id="perspective5060" inkscape:persp3d-origin="372.04724 : 350.78739 : 1" inkscape:vp_z="744.09448 : 526.18109 : 1" inkscape:vp_y="0 : 1000 : 0" inkscape:vp_x="0 : 526.18109 : 1" sodipodi:type="inkscape:persp3d">
		</inkscape:perspective>
	
		<inkscape:perspective  id="perspective5196" inkscape:persp3d-origin="372.04724 : 350.78739 : 1" inkscape:vp_z="744.09448 : 526.18109 : 1" inkscape:vp_y="0 : 1000 : 0" inkscape:vp_x="0 : 526.18109 : 1" sodipodi:type="inkscape:persp3d">
		</inkscape:perspective>
</defs>
<sodipodi:namedview  id="base" inkscape:current-layer="svg4486" inkscape:window-y="-4" inkscape:window-x="-4" inkscape:pageopacity="0.0" inkscape:pageshadow="2" inkscape:window-width="1024" inkscape:window-height="712" inkscape:cy="63.542193" inkscape:cx="97.579635" inkscape:zoom="3.696" showgrid="false" pagecolor="#ffffff" bordercolor="#666666" borderopacity="1.0" objecttolerance="10.0" gridtolerance="10.0" guidetolerance="10.0">
	</sodipodi:namedview>
<g id="flowRoot4498" transform="matrix(0.2827418,0,0,0.264,25.034186,-6.75758)" opacity="0.5">
</g>
<path id="rect3326" fill="#D4C462" d="M15.464,5h104.072C125.333,5,130,9.667,130,15.464v104.072
	c0,5.797-4.667,10.464-10.464,10.464H15.464C9.667,130,5,125.333,5,119.536V15.464C5,9.667,9.667,5,15.464,5z"/>
<g id="g5210">
	<g id="flowRoot5202">
	</g>
</g>
<path id="flowRoot5216" d="M62.182,69.295v-6.581L80.5,62.676v20.812c-2.813,2.908-5.713,5.096-8.702,6.563
	c-2.989,1.466-6.057,2.199-9.204,2.199c-4.248,0-8.107-1.18-11.578-3.539c-3.471-2.359-6.091-5.771-7.861-10.234
	c-1.77-4.463-2.655-9.449-2.655-14.958c0-5.458,0.88-10.553,2.64-15.285c1.76-4.731,4.292-8.245,7.596-10.54
	c3.304-2.295,7.109-3.443,11.416-3.443c3.127,0,5.954,0.657,8.481,1.97s4.508,3.144,5.943,5.49s2.527,5.407,3.275,9.182
	l-5.162,1.836c-0.65-2.856-1.456-5.101-2.42-6.733c-0.963-1.632-2.34-2.939-4.129-3.922c-1.79-0.982-3.776-1.473-5.959-1.473
	c-2.616,0-4.877,0.517-6.785,1.549c-1.908,1.033-3.447,2.391-4.617,4.075c-1.17,1.683-2.08,3.532-2.729,5.547
	C46.95,55.241,46.4,59.003,46.4,63.059c0,5,0.664,9.182,1.991,12.549c1.328,3.367,3.26,5.867,5.797,7.498
	c2.537,1.633,5.231,2.449,8.083,2.449c2.478,0,4.896-0.619,7.256-1.855c2.36-1.236,4.149-2.557,5.369-3.96V69.295H62.182z"/>
<path id="flowRoot5245" d="M104.5,99.944V103H88.533c-0.021-0.766,0.094-1.502,0.346-2.208c0.406-1.165,1.058-2.313,1.953-3.444
	c0.895-1.131,2.188-2.438,3.881-3.921c2.625-2.308,4.398-4.136,5.322-5.484c0.922-1.349,1.383-2.623,1.383-3.824
	c0-1.26-0.42-2.323-1.26-3.188s-1.936-1.298-3.287-1.298c-1.428,0-2.57,0.46-3.428,1.378s-1.291,2.189-1.302,3.814l-3.048-0.335
	c0.208-2.438,0.994-4.296,2.355-5.573C92.812,77.639,94.641,77,96.937,77c2.317,0,4.152,0.689,5.504,2.066
	c1.351,1.378,2.026,3.086,2.026,5.123c0,1.035-0.197,2.055-0.593,3.055c-0.396,1.002-1.052,2.055-1.97,3.162
	c-0.917,1.107-2.441,2.626-4.572,4.557c-1.779,1.602-2.922,2.688-3.428,3.26c-0.505,0.57-0.922,1.145-1.252,1.722H104.5z"/>
</svg>
