<?xml version="1.0" encoding="utf-8"?>
<!-- Generator: Adobe Illustrator 13.0.0, SVG Export Plug-In . SVG Version: 6.00 Build 14948)  -->
<!DOCTYPE svg PUBLIC "-//W3C//DTD SVG 1.1//EN" "http://www.w3.org/Graphics/SVG/1.1/DTD/svg11.dtd">
<svg version="1.1"
	 id="svg4486" sodipodi:version="0.32" sodipodi:docname="scrabble.svg" inkscape:version="0.46" inkscape:output_extension="org.inkscape.output.svg.inkscape" xmlns:cc="http://creativecommons.org/ns#" xmlns:rdf="http://www.w3.org/1999/02/22-rdf-syntax-ns#" xmlns:svg="http://www.w3.org/2000/svg" xmlns:sodipodi="http://sodipodi.sourceforge.net/DTD/sodipodi-0.dtd" xmlns:inkscape="http://www.inkscape.org/namespaces/inkscape" xmlns:dc="http://purl.org/dc/elements/1.1/"
	 xmlns="http://www.w3.org/2000/svg" xmlns:xlink="http://www.w3.org/1999/xlink" x="0px" y="0px" width="135px" height="135px"
	 viewBox="0 0 135 135" enable-background="new 0 0 135 135" xml:space="preserve">
<defs>
	
	
		<inkscape:perspective  id="perspective4493" inkscape:persp3d-origin="372.04724 : 350.78739 : 1" inkscape:vp_z="744.09448 : 526.18109 : 1" inkscape:vp_y="0 : 1000 : 0" inkscape:vp_x="0 : 526.18109 : 1" sodipodi:type="inkscape:persp3d">
		</inkscape:perspective>
	
		<inkscape:perspective  id="perspective4757" inkscape:persp3d-origin="372.04724 : 350.78739 : 1" inkscape:vp_z="744.09448 : 526.18109 : 1" inkscape:vp_y="0 : 1000 : 0" inkscape:vp_x="0 : 526.18109 : 1" sodipodi:type="inkscape:persp3d">
		</inkscape:perspective>
	
		<inkscape:perspective  id="perspective4846" inkscape:persp3d-origin="372.04724 : 350.78739 : 1" inkscape:vp_z="744.09448 : 526.18109 : 1" inkscape:vp_y="0 : 1000 : 0" inkscape:vp_x="0 : 526.18109 : 1" sodipodi:type="inkscape:persp3d">
		</inkscape:perspective>
	
		<inkscape:perspective  id="perspective4950" inkscape:persp3d-origin="372.04724 : 350.78739 : 1" inkscape:vp_z="744.09448 : 526.18109 : 1" inkscape:vp_y="0 : 1000 : 0" inkscape:vp_x="0 : 526.18109 : 1" sodipodi:type="inkscape:persp3d">
		</inkscape:perspective>
	
		<inkscape:perspective  id="perspective5060" inkscape:persp3d-origin="372.04724 : 350.78739 : 1" inkscape:vp_z="744.09448 : 526.18109 : 1" inkscape:vp_y="0 : 1000 : 0" inkscape:vp_x="0 : 526.18109 : 1" sodipodi:type="inkscape:persp3d">
		</inkscape:perspective>
</defs>
<sodipodi:namedview  id="base" inkscape:current-layer="svg4486" inkscape:window-y="-4" inkscape:window-x="-4" inkscape:pageopacity="0.0" inkscape:pageshadow="2" inkscape:window-width="1024" inkscape:window-height="712" inkscape:cy="73.353317" inkscape:cx="41.328223" inkscape:zoom="3.696" showgrid="false" pagecolor="#ffffff" bordercolor="#666666" borderopacity="1.0" objecttolerance="10.0" gridtolerance="10.0" guidetolerance="10.0">
	</sodipodi:namedview>
<g id="g2402">
	<g id="flowRoot4498" transform="matrix(0.2827418,0,0,0.264,25.034186,-6.75758)">
	</g>
	<path id="rect3326" fill="#D4C462" d="M15.464,5h104.072C125.333,5,130,9.667,130,15.464v104.072
		c0,5.797-4.667,10.464-10.464,10.464H15.464C9.667,130,5,125.333,5,119.536V15.464C5,9.667,9.667,5,15.464,5z"/>
	<path id="flowRoot4964" d="M99,103h-3.5V82.74c-0.843,0.73-1.947,1.461-3.314,2.189c-1.369,0.729-2.597,1.278-3.686,1.643V83.5
		c1.957-0.836,3.668-1.85,5.133-3.038s2.502-2.343,3.111-3.462H99V103z"/>
	<path id="flowRoot2393" d="M37.5,93V35h18.111c3.641,0,6.409,0.521,8.304,1.563c1.895,1.042,3.409,2.881,4.542,5.519
		c1.133,2.637,1.699,5.552,1.699,8.744c0,4.114-0.938,7.583-2.814,10.405c-1.876,2.822-4.774,4.616-8.694,5.381
		c1.431,0.976,2.517,1.938,3.26,2.889c1.579,2.057,3.074,4.629,4.486,7.715L73.5,93h-6.799l-5.405-12.066
		c-1.579-3.482-2.879-6.146-3.901-7.992c-1.021-1.846-1.937-3.139-2.744-3.877c-0.808-0.738-1.63-1.253-2.466-1.543
		c-0.613-0.185-1.616-0.277-3.009-0.277h-6.269V93H37.5z M42.906,60.598h11.619c2.47,0,4.402-0.363,5.795-1.088
		c1.393-0.726,2.452-1.886,3.177-3.482c0.724-1.596,1.086-3.33,1.086-5.202c0-2.743-0.701-4.999-2.104-6.766
		c-1.403-1.767-3.618-2.651-6.646-2.651H42.906V60.598z"/>
</g>
</svg>
